<?xml version="1.0" encoding="UTF-8"?>
<svg id="Sideways" xmlns="http://www.w3.org/2000/svg" viewBox="0 0 2435 905">
  <defs>
    <style>
      .cls-1 {
        fill: #577399;
      }

      .cls-2 {
        fill: #fe5f55;
      }
    </style>
  </defs>
  <path class="cls-1" d="M689.53,495.95c-12.66-26.43-30.66-50.06-53.5-70.23-3.17-2.8-6.41-5.49-9.72-8.11-22.94,26.3-52.98,46.27-87.1,56.87,45,21.7,75.42,62.66,75.42,109.53,0,69.48-66.83,126-148.97,126h-226.6l-.17-117.35h34.13l-82.4-142.72-82.4,142.72h35.67l.31,212.35h321.46c64.07,0,124.57-22.27,170.37-62.71,22.84-20.17,40.84-43.8,53.5-70.23,13.34-27.85,20.1-57.47,20.1-88.05s-6.76-60.21-20.1-88.05Z"/>
  <path class="cls-2" d="M482.8,100H143.63v288l95-54.85v-138.15h244.18c38.83,0,70.41,31.59,70.41,70.41v27.18c0,38.82-31.59,70.41-70.41,70.41h-187.76v-33.55l-142.72,82.4,142.72,82.4v-36.55l15,.3h172.76c91.21,0,165.41-74.2,165.41-165.41v-27.18c0-91.21-74.2-165.41-165.41-165.41Z"/>
  <g>
    <path class="cls-2" d="M1039.88,345.3c0,12.02-2.42,22.77-7.26,32.23-4.84,9.46-11.5,17.31-19.95,23.54-9.8,7.35-20.57,12.58-32.31,15.7-11.75,3.12-26.63,4.68-44.67,4.68h-108.54v-248.63h96.51c20.04,0,34.7.67,44,2,9.29,1.34,18.5,4.29,27.63,8.85,9.46,4.79,16.5,11.22,21.12,19.29,4.62,8.07,6.93,17.28,6.93,27.63,0,12.02-3.17,22.63-9.52,31.81-6.35,9.18-15.31,16.34-26.88,21.46v1.34c16.25,3.23,29.14,9.91,38.65,20.04,9.52,10.13,14.28,23.49,14.28,40.07ZM957.73,243.11c0-4.12-1.03-8.24-3.09-12.36-2.06-4.12-5.71-7.18-10.94-9.18-4.68-1.78-10.49-2.75-17.45-2.92-6.96-.17-16.73-.25-29.3-.25h-6.01v52.6h10.02c10.13,0,18.76-.17,25.88-.5,7.12-.33,12.74-1.45,16.86-3.34,5.79-2.56,9.57-5.87,11.35-9.94,1.78-4.06,2.67-8.77,2.67-14.11ZM973.26,344.29c0-7.9-1.53-14-4.59-18.28-3.05-4.28-8.25-7.48-15.58-9.6-5-1.44-11.89-2.23-20.66-2.34-8.78-.11-17.94-.17-27.5-.17h-14v61.95h4.67c18,0,30.88-.05,38.66-.17,7.77-.11,14.94-1.56,21.5-4.34,6.66-2.78,11.25-6.48,13.75-11.1,2.5-4.62,3.75-9.94,3.75-15.95Z"/>
    <path class="cls-2" d="M1317.4,421.44h-66.22l-17.32-50.26h-92.01l-17.32,50.26h-64.62l91.84-248.63h73.8l91.84,248.63ZM1218.45,325.59l-30.59-89.07-30.6,89.07h61.18Z"/>
    <path class="cls-2" d="M1592.58,421.44h-78.32l-67.64-91.17h-29.71v91.17h-63.78v-248.63h107.53c14.69,0,27.33.84,37.9,2.5,10.58,1.67,20.48,5.29,29.72,10.85,9.35,5.57,16.78,12.77,22.29,21.62,5.51,8.85,8.27,19.95,8.27,33.31,0,18.37-4.26,33.34-12.77,44.92-8.52,11.58-20.68,21.21-36.48,28.89l82.99,106.53ZM1492.56,248.95c0-6.23-1.28-11.58-3.84-16.03-2.56-4.45-6.96-7.96-13.19-10.52-4.34-1.78-9.41-2.86-15.19-3.26-5.79-.39-12.52-.58-20.2-.58h-23.21v66.96h19.7c10.24,0,18.81-.5,25.71-1.5,6.9-1,12.69-3.28,17.37-6.85,4.45-3.45,7.71-7.26,9.77-11.44,2.06-4.17,3.09-9.77,3.09-16.78Z"/>
    <path class="cls-2" d="M1815.16,220.9h-77.64v200.54h-64.12v-200.54h-77.64v-48.09h219.41v48.09Z"/>
    <path class="cls-2" d="M2033.57,421.44h-179.84v-248.63h179.84v48.09h-116.05v42.91h107.7v48.09h-107.7v61.45h116.05v48.09Z"/>
    <path class="cls-2" d="M2326.78,421.44h-78.32l-67.64-91.17h-29.71v91.17h-63.78v-248.63h107.53c14.69,0,27.33.84,37.9,2.5s20.48,5.29,29.72,10.85c9.35,5.57,16.78,12.77,22.29,21.62s8.27,19.95,8.27,33.31c0,18.37-4.26,33.34-12.77,44.92-8.52,11.58-20.68,21.21-36.48,28.89l82.99,106.53ZM2226.76,248.95c0-6.23-1.28-11.58-3.84-16.03-2.56-4.45-6.96-7.96-13.19-10.52-4.34-1.78-9.41-2.86-15.19-3.26-5.79-.39-12.52-.58-20.2-.58h-23.21v66.96h19.7c10.24,0,18.81-.5,25.71-1.5,6.9-1,12.69-3.28,17.37-6.85,4.45-3.45,7.71-7.26,9.77-11.44,2.06-4.17,3.09-9.77,3.09-16.78Z"/>
  </g>
  <g>
    <path class="cls-1" d="M1039.88,656.89c0,12.02-2.42,22.77-7.26,32.23-4.84,9.46-11.5,17.31-19.96,23.54-9.8,7.35-20.57,12.58-32.31,15.7-11.75,3.12-26.63,4.68-44.67,4.68h-108.54v-248.63h96.52c20.04,0,34.7.67,44,2,9.29,1.34,18.51,4.29,27.64,8.85,9.46,4.79,16.5,11.22,21.12,19.29,4.62,8.07,6.93,17.28,6.93,27.63,0,12.02-3.17,22.63-9.52,31.81-6.34,9.18-15.31,16.34-26.88,21.46v1.34c16.25,3.23,29.14,9.91,38.66,20.04,9.52,10.13,14.28,23.49,14.28,40.07ZM957.73,554.7c0-4.12-1.03-8.24-3.09-12.36-2.06-4.12-5.71-7.18-10.94-9.18-4.68-1.78-10.49-2.75-17.45-2.92-6.96-.17-16.73-.25-29.3-.25h-6.01v52.6h10.02c10.13,0,18.76-.17,25.88-.5,7.12-.33,12.74-1.45,16.86-3.34,5.79-2.56,9.57-5.87,11.36-9.94,1.78-4.06,2.67-8.77,2.67-14.11ZM973.26,655.88c0-7.9-1.53-14-4.58-18.28-3.06-4.28-8.25-7.48-15.58-9.6-5-1.44-11.89-2.23-20.66-2.34-8.78-.11-17.94-.17-27.5-.17h-14v61.95h4.67c18,0,30.88-.05,38.66-.17,7.78-.11,14.94-1.56,21.5-4.34,6.66-2.78,11.25-6.48,13.75-11.1,2.5-4.62,3.75-9.94,3.75-15.95Z"/>
    <path class="cls-1" d="M1305.38,643.03c0,30.72-9.35,54.27-28.05,70.63-18.7,16.36-46.25,24.55-82.65,24.55s-63.93-8.18-82.57-24.55c-18.65-16.36-27.97-39.85-27.97-70.46v-158.8h64.45v155.12c0,17.26,3.62,30.11,10.85,38.57,7.23,8.46,18.98,12.69,35.23,12.69s27.75-4.06,35.15-12.19c7.4-8.12,11.1-21.15,11.1-39.07v-155.12h64.45v158.63Z"/>
    <path class="cls-1" d="M1600.26,608.96c0,23.15-5.29,43.89-15.86,62.2-10.58,18.31-23.94,32.37-40.07,42.16-12.13,7.35-25.44,12.47-39.91,15.36-14.47,2.9-31.62,4.34-51.43,4.34h-87.66v-248.63h90.17c20.26,0,37.74,1.7,52.43,5.09,14.69,3.4,27.05,8.21,37.07,14.44,17.14,10.47,30.64,24.57,40.49,42.33,9.85,17.76,14.78,38.66,14.78,62.7ZM1533.97,608.46c0-16.36-2.98-30.36-8.93-42-5.96-11.63-15.39-20.73-28.3-27.3-6.57-3.23-13.28-5.43-20.12-6.6-6.85-1.17-17.17-1.75-30.98-1.75h-16.19v155.62h16.19c15.25,0,26.44-.69,33.56-2.09,7.12-1.39,14.08-3.92,20.87-7.6,11.69-6.68,20.26-15.61,25.71-26.8,5.45-11.19,8.18-25.02,8.18-41.49Z"/>
    <path class="cls-1" d="M1884.12,608.96c0,23.15-5.29,43.89-15.86,62.2-10.58,18.31-23.94,32.37-40.07,42.16-12.13,7.35-25.44,12.47-39.91,15.36-14.47,2.9-31.62,4.34-51.43,4.34h-87.66v-248.63h90.17c20.26,0,37.74,1.7,52.43,5.09,14.69,3.4,27.05,8.21,37.07,14.44,17.14,10.47,30.64,24.57,40.49,42.33,9.85,17.76,14.78,38.66,14.78,62.7ZM1817.83,608.46c0-16.36-2.98-30.36-8.93-42-5.96-11.63-15.39-20.73-28.3-27.3-6.57-3.23-13.28-5.43-20.12-6.6-6.85-1.17-17.17-1.75-30.98-1.75h-16.19v155.62h16.19c15.25,0,26.44-.69,33.56-2.09,7.12-1.39,14.08-3.92,20.87-7.6,11.69-6.68,20.26-15.61,25.71-26.8,5.45-11.19,8.18-25.02,8.18-41.49Z"/>
    <path class="cls-1" d="M2151.79,484.4l-91.67,152.45v96.18h-64.12v-93.17l-93.17-155.46h73l53.6,95.91,51.83-95.91h70.53Z"/>
  </g>
</svg>